# xmcd
#
# Track frame offsets: 
#        150
#        24979
#        42867
#        92515
#        109314
#        147877
#        182735
#        199028
#        213425
#        246691
#        269998
#        292069
#        313568
#
# Disc length: 4528 seconds
#
# Revision: 0
# Processed by: cddbd v1.5.2PL0 Copyright (c) Steve Scherf et al.
# Submitted via: ExactAudioCopy v1.0b3
#
DISCID=cb11ae0d
DTITLE=Albert Collins - Albert Collins Live
DYEAR=1900
DGENRE=Blues
TTITLE0=T-Bone Shufle
TTITLE1=Iceman
TTITLE2=Lights Are On Nobody's Horn
TTITLE3=If You Love Me Like You Say
TTITLE4=Put The Shoe On The Other Foot
TTITLE5=Frosty
TTITLE6=Travelin' South
TTITLE7=Talkin' Woman
TTITLE8=My Woman Has A Black Cat Bone
TTITLE9=I Ain't Drunk
TTITLE10=Things I Used To Do
TTITLE11=Frosty
TTITLE12=Honey Hush
EXTD=
EXTT0=
EXTT1=
EXTT2=
EXTT3=
EXTT4=
EXTT5=
EXTT6=
EXTT7=
EXTT8=
EXTT9=
EXTT10=
EXTT11=
EXTT12=
PLAYORDER=
